# xmcd CD database file
#
# Track frame offsets:
#	150
#	13315
#	29180
#	43224
#	59206
#	74762
#	87717
#	101768
#	118518
#	136484
#	151451
#	166388
#	179770
#	194062
#
# Disc length: 2761 seconds
#
# Revision: 0
# Processed by: cddbd v1.5.1PL0 Copyright (c) Steve Scherf et al.
# Submitted via: CDex 1.40Beta9
#
DISCID=eb0ac70e
DTITLE=Truck Stop - Trucker, Cowboys, Männer #1
DYEAR=2002
DGENRE=Country
TTITLE0=Trucker, Cowboy, Mann
TTITLE1=Trucker lieben die Freiheit
TTITLE2=Cowboys und Texasboots
TTITLE3=Gegen den Wind
TTITLE4=Alles Bingo
TTITLE5=We Are The Cowboys
TTITLE6=Schottischer Whisky
TTITLE7=Alabama Moon
TTITLE8=Kleine Cowboys werden gross
TTITLE9=Hinterm Lenker
TTITLE10=Emmylou, Emmylou
TTITLE11=Willst Du 'nen Kerl oden 'n Adonis
TTITLE12=Die Lady und der Tramp
TTITLE13=Die Frau mit dem Gurt
EXTD=YEAR: 2002 ID3G: 2
EXTT0=
EXTT1=
EXTT2=
EXTT3=
EXTT4=
EXTT5=
EXTT6=
EXTT7=
EXTT8=
EXTT9=
EXTT10=
EXTT11=
EXTT12=
EXTT13=
PLAYORDER=
